<svg class="icon" viewBox="0 0 1070 1024" version="1.1" xmlns="http://www.w3.org/2000/svg"  xmlns:xlink="http://www.w3.org/1999/xlink" width="208.984375" height="200"><defs><style type="text/css"></style></defs><path d="M232.727273 151.272727h116.247272a34.885818 34.885818 0 1 1 0 69.818182H232.727273v116.247273a34.885818 34.885818 0 1 1-69.818182 0V221.090909H46.661818a34.885818 34.885818 0 1 1 0-69.818182H162.909091V35.025455a34.885818 34.885818 0 1 1 69.818182 0V151.272727z m344.017454-69.818182a34.909091 34.909091 0 1 1 0-69.818181h354.048A128.139636 128.139636 0 0 1 1058.909091 139.636364v744.727272c0 70.749091-57.134545 128-127.883636 128H232.610909A128 128 0 0 1 104.727273 884.573091V583.493818a34.909091 34.909091 0 0 1 69.818182 0v301.079273A58.181818 58.181818 0 0 0 232.610909 942.545455h698.414546A58.018909 58.018909 0 0 0 989.090909 884.363636V139.636364c0-32.046545-26.135273-58.181818-58.298182-58.181819H576.744727z" ></path></svg>
