<svg  class="icon" viewBox="0 0 1024 1024" version="1.1" xmlns="http://www.w3.org/2000/svg"  xmlns:xlink="http://www.w3.org/1999/xlink" width="128" height="128"><defs><style type="text/css"></style></defs><path d="M661.333333 320A149.333333 149.333333 0 1 1 512 170.666667a149.333333 149.333333 0 0 1 149.333333 149.333333z m-149.333333 384a170.666667 170.666667 0 0 1 170.666667 149.333333H341.333333a170.666667 170.666667 0 0 1 170.666667-149.333333z m179.2-213.333333l-128 177.493333A213.333333 213.333333 0 0 0 298.666667 853.333333H234.666667L170.666667 704l128-213.333333z m42.666667 14.08L853.333333 704 789.333333 853.333333H725.333333a213.333333 213.333333 0 0 0-118.186666-170.666666z" ></path></svg>
