<svg class="icon" viewBox="0 0 1024 1024" version="1.1" xmlns="http://www.w3.org/2000/svg" xmlns:xlink="http://www.w3.org/1999/xlink" width="128" height="128"><defs><style type="text/css"></style></defs><path d="M832 640h-192c-35.2 0-64-28.8-64-64s28.8-64 64-64h192s192-214 192-320-86-192-192-192-192 86-192 192c0 51 44.4 126.8 90.6 192H640c-105.8 0-192 86.2-192 192s86.2 192 192 192h192c35.2 0 64 28.8 64 64s-28.8 64-64 64H371c-32 49.6-67.6 95.4-94.6 128H832c105.8 0 192-86.2 192-192s-86.2-192-192-192z m0-512c35.4 0 64 28.6 64 64s-28.6 64-64 64-64-28.6-64-64 28.6-64 64-64zM192 512c-106 0-192 86-192 192s192 320 192 320 192-214 192-320-86-192-192-192z m0 256c-35.4 0-64-28.6-64-64s28.6-64 64-64 64 28.6 64 64-28.6 64-64 64z"  ></path></svg>
